<svg width="158" height="69" viewBox="0 0 158 69" fill="none" xmlns="http://www.w3.org/2000/svg">
<g filter="url(#filter0_d_1_16)">
<path d="M4 14C4 7.40034 4 4.10051 6.05025 2.05025C8.10051 0 11.4003 0 18 0H140C146.6 0 149.899 0 151.95 2.05025C154 4.10051 154 7.40034 154 14V36C154 42.5997 154 45.8995 151.95 47.9497C149.899 50 146.6 50 140 50H18C11.4003 50 8.10051 50 6.05025 47.9497C4 45.8995 4 42.5997 4 36V14Z" fill="#1F2535"/>
</g>
<g filter="url(#filter1_d_1_16)">
<path d="M77.6907 59.8661C78.315 60.4068 78.6272 60.6771 79 60.6771C79.3728 60.6771 79.685 60.4068 80.3093 59.8661L100.06 42.7619C101.761 41.2882 102.612 40.5513 102.37 39.9007C102.127 39.25 101.001 39.25 98.7503 39.25H59.2497C56.9986 39.25 55.8731 39.25 55.6305 39.9007C55.3879 40.5513 56.2387 41.2882 57.9404 42.7619L77.6907 59.8661Z" fill="#1F2535"/>
</g>
<path d="M50.6914 32.1172C48.4102 32.1172 46.7227 31.5156 45.6289 30.3125C44.5352 29.1094 43.9883 27.2383 43.9883 24.6992C43.9883 19.7539 46.2344 17.2812 50.7266 17.2812C51.3828 17.2812 52.0195 17.3516 52.6367 17.4922C53.2539 17.625 53.7539 17.793 54.1367 17.9961C54.5195 18.1992 54.7109 18.3945 54.7109 18.582C54.7109 18.6992 54.668 18.8555 54.582 19.0508C54.5039 19.2461 54.4102 19.418 54.3008 19.5664C54.1914 19.7148 54.0938 19.7891 54.0078 19.7891C53.9688 19.7891 53.8594 19.7383 53.6797 19.6367C53.2734 19.418 52.8477 19.2344 52.4023 19.0859C51.957 18.9375 51.4141 18.8633 50.7734 18.8633C49.0938 18.8633 47.8555 19.332 47.0586 20.2695C46.2695 21.1992 45.875 22.6836 45.875 24.7227C45.875 26.7148 46.2656 28.1836 47.0469 29.1289C47.8359 30.0664 49.0508 30.5352 50.6914 30.5352C51.3789 30.5352 51.9688 30.4531 52.4609 30.2891C52.9531 30.125 53.4258 29.9219 53.8789 29.6797C54.0977 29.5625 54.2305 29.5039 54.2773 29.5039C54.3633 29.5039 54.4609 29.5781 54.5703 29.7266C54.6875 29.875 54.7891 30.043 54.875 30.2305C54.9609 30.4102 55.0039 30.5391 55.0039 30.6172C55.0039 30.8125 54.8047 31.0312 54.4062 31.2734C54.0156 31.5078 53.4883 31.707 52.8242 31.8711C52.168 32.0352 51.457 32.1172 50.6914 32.1172ZM61.6836 32.1172C60.1133 32.1172 58.9141 31.6484 58.0859 30.7109C57.2656 29.7656 56.8555 28.3945 56.8555 26.5977C56.8555 24.8008 57.2734 23.418 58.1094 22.4492C58.9453 21.4727 60.1367 20.9844 61.6836 20.9844C63.2148 20.9844 64.3867 21.4688 65.1992 22.4375C66.0117 23.3984 66.418 24.7852 66.418 26.5977C66.418 28.4023 66.0156 29.7734 65.2109 30.7109C64.4141 31.6484 63.2383 32.1172 61.6836 32.1172ZM61.625 30.6172C62.6406 30.6172 63.3906 30.2891 63.875 29.6328C64.3594 28.9688 64.6016 27.9453 64.6016 26.5625C64.6016 25.1719 64.3594 24.1445 63.875 23.4805C63.3906 22.8164 62.6406 22.4844 61.625 22.4844C60.6172 22.4844 59.875 22.8164 59.3984 23.4805C58.9219 24.1367 58.6836 25.1641 58.6836 26.5625C58.6836 27.9531 58.918 28.9766 59.3867 29.6328C59.8633 30.2891 60.6094 30.6172 61.625 30.6172ZM70.2031 36.3359C69.6406 36.3359 69.3594 36.1836 69.3594 35.8789V24.2656C69.3594 23.3594 69.3164 22.707 69.2305 22.3086C69.1445 21.9023 69.1016 21.6797 69.1016 21.6406C69.1016 21.4688 69.2305 21.3477 69.4883 21.2773C69.7539 21.1992 70.0039 21.1602 70.2383 21.1602C70.4336 21.1602 70.5781 21.2656 70.6719 21.4766C70.7656 21.6875 70.832 21.9023 70.8711 22.1211C70.918 22.3398 70.9492 22.4805 70.9648 22.543C71.957 21.5039 73.0625 20.9844 74.2812 20.9844C75.1172 20.9844 75.8398 21.2227 76.4492 21.6992C77.0586 22.1758 77.5234 22.8359 77.8438 23.6797C78.1641 24.5234 78.3242 25.4844 78.3242 26.5625C78.3242 27.7344 78.1445 28.7383 77.7852 29.5742C77.4336 30.4102 76.9375 31.043 76.2969 31.4727C75.6562 31.9023 74.918 32.1172 74.082 32.1172C73.4805 32.1172 72.9453 32.0273 72.4766 31.8477C72.0156 31.668 71.5586 31.4062 71.1055 31.0625V35.8789C71.1055 36.1836 70.832 36.3359 70.2852 36.3359H70.2031ZM73.6836 30.582C74.6133 30.5586 75.3125 30.2188 75.7812 29.5625C76.25 28.9062 76.4844 27.9531 76.4844 26.7031C76.4844 25.3594 76.2617 24.3242 75.8164 23.5977C75.3789 22.8633 74.7461 22.4961 73.918 22.4961C73.457 22.4961 72.9766 22.6211 72.4766 22.8711C71.9844 23.1211 71.5273 23.4766 71.1055 23.9375V29.6445C71.8711 30.2695 72.7305 30.582 73.6836 30.582ZM82.168 18.4766C81.6133 18.4766 81.3359 18.3242 81.3359 18.0195V16.7891C81.3359 16.4844 81.6133 16.332 82.168 16.332H82.4141C82.9766 16.332 83.2578 16.4844 83.2578 16.7891V18.0195C83.2578 18.3242 82.9766 18.4766 82.4141 18.4766H82.168ZM82.25 32.0352C81.6953 32.0352 81.418 31.8828 81.418 31.5781V21.5234C81.418 21.2188 81.6953 21.0664 82.25 21.0664H82.332C82.8945 21.0664 83.1758 21.2188 83.1758 21.5234V31.5781C83.1758 31.8828 82.8945 32.0352 82.332 32.0352H82.25ZM91.3086 32.1172C89.582 32.1172 88.2969 31.668 87.4531 30.7695C86.6172 29.8633 86.1992 28.4805 86.1992 26.6211C86.1992 24.7773 86.6094 23.3789 87.4297 22.4258C88.25 21.4648 89.457 20.9844 91.0508 20.9844C92.4727 20.9844 93.543 21.4453 94.2617 22.3672C94.9883 23.2891 95.3516 24.6406 95.3516 26.4219C95.3516 26.5 95.3086 26.6094 95.2227 26.75C95.1445 26.8828 95.0469 27.0039 94.9297 27.1133C94.8203 27.2148 94.7266 27.2656 94.6484 27.2656H88.0742C88.1602 28.4297 88.457 29.2812 88.9648 29.8203C89.4805 30.3516 90.2539 30.6172 91.2852 30.6172C91.8633 30.6172 92.3594 30.5469 92.7734 30.4062C93.1953 30.2656 93.6016 30.0938 93.9922 29.8906C94.0312 29.875 94.0898 29.8477 94.168 29.8086C94.2461 29.7695 94.3008 29.75 94.332 29.75C94.418 29.75 94.5156 29.8203 94.625 29.9609C94.7422 30.0938 94.8398 30.2461 94.918 30.418C95.0039 30.582 95.0469 30.7031 95.0469 30.7812C95.0469 30.9531 94.875 31.1445 94.5312 31.3555C94.1875 31.5664 93.7266 31.7461 93.1484 31.8945C92.5781 32.043 91.9648 32.1172 91.3086 32.1172ZM93.4883 25.7656C93.4883 23.5781 92.6562 22.4844 90.9922 22.4844C89.2031 22.4844 88.2305 23.5781 88.0742 25.7656H93.4883ZM101.422 32.1172C100.609 32.1172 99.8984 31.8828 99.2891 31.4141C98.6797 30.9375 98.207 30.2773 97.8711 29.4336C97.543 28.5898 97.3789 27.6328 97.3789 26.5625C97.3789 25.3828 97.5547 24.375 97.9062 23.5391C98.2656 22.6953 98.7656 22.0586 99.4062 21.6289C100.047 21.1992 100.785 20.9844 101.621 20.9844C102.223 20.9844 102.754 21.0742 103.215 21.2539C103.684 21.4336 104.145 21.6953 104.598 22.0391V16.7891C104.598 16.4844 104.871 16.332 105.418 16.332H105.512C106.066 16.332 106.344 16.4844 106.344 16.7891V28.918C106.344 29.8242 106.387 30.4805 106.473 30.8867C106.559 31.2852 106.602 31.5039 106.602 31.543C106.602 31.7148 106.469 31.8398 106.203 31.918C105.945 31.9883 105.703 32.0234 105.477 32.0234C105.32 32.0234 105.195 31.9492 105.102 31.8008C105.008 31.6523 104.941 31.5039 104.902 31.3555C104.871 31.1992 104.816 30.9336 104.738 30.5586C103.746 31.5977 102.641 32.1172 101.422 32.1172ZM101.785 30.6055C102.246 30.6055 102.723 30.4805 103.215 30.2305C103.715 29.9805 104.176 29.625 104.598 29.1641V23.457C103.848 22.832 102.992 22.5195 102.031 22.5195C101.102 22.543 100.398 22.8828 99.9219 23.5391C99.4531 24.1953 99.2188 25.1484 99.2188 26.3984C99.2188 27.7422 99.4375 28.7812 99.875 29.5156C100.32 30.2422 100.957 30.6055 101.785 30.6055ZM111.055 27.7812C110.633 27.7812 110.422 27.6289 110.422 27.3242V17.832C110.422 17.5195 110.703 17.3633 111.266 17.3633H111.676C112.215 17.3633 112.484 17.5195 112.484 17.832C112.406 19.2383 112.281 21.3477 112.109 24.1602L111.922 27.3242C111.906 27.6289 111.695 27.7812 111.289 27.7812H111.055ZM111.008 32.0352C110.719 32.0352 110.508 32 110.375 31.9297C110.242 31.8516 110.176 31.7344 110.176 31.5781V30.207C110.176 29.9023 110.453 29.75 111.008 29.75H111.371C111.918 29.75 112.191 29.9023 112.191 30.207V31.5781C112.191 31.7344 112.125 31.8516 111.992 31.9297C111.859 32 111.652 32.0352 111.371 32.0352H111.008Z" fill="white"/>
<defs>
<filter id="filter0_d_1_16" x="0" y="0" width="158" height="58" filterUnits="userSpaceOnUse" color-interpolation-filters="sRGB">
<feFlood flood-opacity="0" result="BackgroundImageFix"/>
<feColorMatrix in="SourceAlpha" type="matrix" values="0 0 0 0 0 0 0 0 0 0 0 0 0 0 0 0 0 0 127 0" result="hardAlpha"/>
<feOffset dy="4"/>
<feGaussianBlur stdDeviation="2"/>
<feComposite in2="hardAlpha" operator="out"/>
<feColorMatrix type="matrix" values="0 0 0 0 0 0 0 0 0 0 0 0 0 0 0 0 0 0 0.25 0"/>
<feBlend mode="normal" in2="BackgroundImageFix" result="effect1_dropShadow_1_16"/>
<feBlend mode="normal" in="SourceGraphic" in2="effect1_dropShadow_1_16" result="shape"/>
</filter>
<filter id="filter1_d_1_16" x="51.5898" y="39.25" width="54.8204" height="29.4271" filterUnits="userSpaceOnUse" color-interpolation-filters="sRGB">
<feFlood flood-opacity="0" result="BackgroundImageFix"/>
<feColorMatrix in="SourceAlpha" type="matrix" values="0 0 0 0 0 0 0 0 0 0 0 0 0 0 0 0 0 0 127 0" result="hardAlpha"/>
<feOffset dy="4"/>
<feGaussianBlur stdDeviation="2"/>
<feComposite in2="hardAlpha" operator="out"/>
<feColorMatrix type="matrix" values="0 0 0 0 0 0 0 0 0 0 0 0 0 0 0 0 0 0 0.25 0"/>
<feBlend mode="normal" in2="BackgroundImageFix" result="effect1_dropShadow_1_16"/>
<feBlend mode="normal" in="SourceGraphic" in2="effect1_dropShadow_1_16" result="shape"/>
</filter>
</defs>
</svg>
